<?xml version="1.0" encoding="utf-8"?>
<svg viewBox="0 0 1642.48 846.52" xmlns="http://www.w3.org/2000/svg">
  <defs>
    <style>.cls-1,.cls-3{fill:none;stroke:#2e186a;stroke-linecap:round;stroke-linejoin:round;}.cls-1{stroke-width:6px;}.cls-2{fill:#fe7624;}.cls-3{stroke-width:8px;}.cls-4{fill:#2e186a;}</style>
  </defs>
  <rect x="711.437" y="474.291" width="217.133" height="364.224" style="stroke: rgb(0, 0, 0); fill: rgb(255, 255, 255);"/>
  <rect x="565.347" y="364.224" width="288.177" height="181.111" style="stroke: rgb(0, 0, 0); fill: rgb(255, 255, 255);"/>
  <path d="M 385.237 400.245 L 545.663 400.245 C 544.357 396.032 544.519 389.714 545.353 385.978 C 546.144 382.439 548.688 379.201 550.357 377.473 C 551.523 376.264 552.323 376.581 553.859 375.471 C 553.881 375.455 553.903 375.439 553.926 375.423 C 553.776 372.628 554.006 369.797 554.359 367.967 C 554.838 365.482 556.147 363.733 557.361 362.463 C 558.378 361.399 559.757 361.145 560.863 360.462 C 561.92 359.809 562.166 358.766 563.865 358.461 C 565.202 358.221 567.909 358.268 570.785 358.521 C 571.456 356.775 572.595 355.392 573.371 354.458 C 574.048 353.643 574.6 353.432 575.372 352.957 C 576.24 352.424 577.605 352.089 578.374 351.457 C 579.057 350.894 579.009 350.118 579.875 349.455 C 581.194 348.445 585.059 347.463 586.379 346.453 C 587.245 345.79 587.093 345.138 587.88 344.452 C 588.983 343.489 590.4 341.892 592.883 341.45 C 595.742 340.942 602.397 341.41 606.82 342.333 C 613.085 339.504 619.025 337.187 622.901 336.447 C 626.351 335.789 629.781 335.836 632.747 336.236 C 628.607 328.056 624.965 320.348 622.078 314.34 C 622.018 314.372 621.959 314.403 621.9 314.434 C 617.914 316.511 611.091 317.545 606.891 316.435 C 606.791 316.409 606.691 316.381 606.591 316.351 C 606.021 316.771 605.45 317.136 604.89 317.436 C 601.52 319.24 596.465 319.516 592.883 318.436 C 589.293 317.354 585.176 314.431 583.377 310.932 C 582.755 309.722 582.357 308.132 582.125 306.41 C 581.024 305.363 580.074 304.183 579.374 302.927 C 577.711 299.943 577.083 294.655 577.155 290.769 C 576.734 287.66 576.959 284.175 577.373 282.019 C 577.84 279.587 579.161 277.785 580.375 276.516 C 581.393 275.452 582.501 275.249 583.877 274.515 C 584.007 274.446 584.139 274.372 584.271 274.296 C 584.805 273.284 585.513 272.422 586.379 271.407 C 588.167 269.311 592.078 266.502 593.883 265.404 C 594.969 264.744 595.673 265.04 596.385 264.403 C 597.221 263.655 597.506 261.742 598.386 260.901 C 599.203 260.119 600.619 260.033 601.388 259.4 C 602.071 258.838 601.975 258.116 602.889 257.399 C 603.186 257.166 603.546 256.89 603.957 256.594 C 604.4 256.136 604.818 255.733 605.183 255.398 C 606.579 254.119 607.137 253.669 609.186 253.396 C 609.877 253.304 610.842 253.267 611.965 253.278 C 616.393 252.946 623.986 254.003 626.403 255.398 C 627.931 256.278 627.772 257.046 628.404 258.9 C 628.455 259.049 628.51 259.209 628.568 259.379 C 628.811 259.366 629.047 259.357 629.274 259.351 C 629.305 258.807 629.349 258.32 629.405 257.899 C 629.811 254.85 631.193 253.665 632.407 252.396 C 633.424 251.332 634.804 251.077 635.909 250.394 C 636.966 249.742 637.24 248.689 638.911 248.393 C 639.913 248.216 641.679 248.211 643.686 248.339 C 645.354 239.051 647.758 229.962 653.42 218.875 C 661.316 203.413 681.38 174.013 690.943 165.342 C 696.153 160.618 699.33 160.348 703.951 159.339 C 708.658 158.31 714.313 157.721 718.96 159.339 C 723.858 161.044 730.059 167.998 732.468 169.845 C 733.585 170.701 733.685 171.547 734.47 171.346 C 735.687 171.034 736.492 166.699 738.972 165.342 C 742.257 163.545 750.597 162.963 753.982 163.341 C 756.142 163.582 757.106 164.646 758.484 165.342 C 759.756 165.985 760.714 166.701 761.986 167.343 C 762.661 167.684 763.491 167.936 764.291 168.22 C 768.19 168.056 776.175 169.007 778.497 170.345 C 780.024 171.226 779.865 171.994 780.498 173.847 C 781.411 176.521 783.601 182.804 783.728 187.296 C 785.829 188.364 787.516 189.83 788.796 192.152 C 790.417 195.091 792.066 200.886 792.097 205.249 C 792.206 205.727 792.304 206.205 792.389 206.676 C 792.425 206.741 792.463 206.805 792.505 206.868 C 793.363 208.17 794.859 208.539 795.507 210.87 C 796.424 214.167 795.044 221.92 795.037 228.456 C 795.592 228.869 796.076 229.323 796.47 229.822 C 798.51 232.407 799.436 237.527 799.656 242.677 C 801.267 245.289 802.849 247.893 803.512 250.895 C 804.938 257.349 805.309 266.799 803.512 271.908 C 803.281 272.564 803.01 273.19 802.704 273.787 C 805.831 282.277 808.994 296.616 808.515 300.926 C 808.309 302.784 807.167 302.66 806.289 303.522 C 808.877 312.095 812.666 326.398 811.517 331.945 C 810.611 336.318 807.549 338.649 804.404 340.254 C 802.782 344.675 800.133 346.894 797.008 348.455 C 793.734 350.089 788.583 350.535 785.001 349.455 C 783.326 348.95 781.561 348.165 779.96 347.059 C 779.225 347.587 778.541 348.04 777.996 348.455 C 776.652 349.478 775.336 347.834 774.494 349.956 C 773.558 352.314 773.899 360.105 774.611 369.781 C 782.96 364.905 790.018 360.669 792.505 358.461 C 794.787 356.435 793.635 355.661 795.007 354.458 C 796.778 352.905 799.691 350.96 803.012 350.456 C 807.162 349.826 815.895 350.943 818.521 352.457 C 820.049 353.338 819.885 354.139 820.522 355.959 C 821.609 359.063 824.096 367.183 823.524 370.969 C 823.372 371.979 823.247 372.698 823.002 373.341 C 826.766 373.761 829.908 374.593 831.529 375.471 C 832.95 376.241 832.931 376.944 833.321 378.31 C 833.381 377.827 833.452 377.377 833.53 376.972 C 833.997 374.54 835.318 372.738 836.532 371.469 C 837.55 370.405 838.929 370.15 840.034 369.468 C 841.092 368.815 841.473 367.879 843.036 367.466 C 845.566 366.8 851.337 366.269 855.044 367.466 C 858.859 368.699 862.117 371.206 865.55 374.971 C 870.002 379.852 876.053 388.34 878.558 395.984 C 878.991 397.306 879.386 398.743 879.732 400.245 L 883.15 422.876 L 897.552 467.547 C 897.558 467.541 897.564 467.534 897.57 467.528 C 898.587 466.464 899.966 466.209 901.072 465.527 C 902.129 464.874 902.348 463.839 904.074 463.525 C 907.33 462.934 918.729 463.934 921.585 465.527 C 923.168 466.41 922.549 467.519 923.586 469.029 C 925.196 471.372 926.957 474.788 931.09 478.535 C 937.726 484.55 959.348 497.083 963.61 501.048 C 965.246 502.57 964.166 502.293 965.612 504.05 C 969.41 508.667 988.474 528.713 993.128 533.568 C 995.139 535.666 995.327 535.503 996.631 537.071 C 998.385 539.181 1000.778 543.482 1002.634 545.576 C 1004.053 547.176 1004.93 547.676 1006.637 549.078 C 1008.953 550.981 1013.632 552.682 1015.642 556.082 C 1017.961 560.003 1019.73 567.86 1018.644 572.092 C 1017.705 575.754 1014.743 578.546 1011.14 580.597 C 1006.762 583.089 999.718 586.151 993.128 584.6 C 987.236 583.212 978.647 576.41 971.982 570.636 C 973.734 574.15 975.323 577.412 976.618 580.097 C 980.773 588.713 984.352 596.124 985.624 602.111 C 986.558 606.509 986.852 609.88 985.624 613.117 C 984.381 616.394 981.398 620.012 978.119 621.623 C 974.797 623.255 969.381 623.728 965.598 622.759 C 965.712 634.709 965.192 646.287 963.61 655.143 C 960.582 672.102 950.381 691.581 946.6 696.669 C 945.158 698.61 944.934 697.903 943.098 698.67 C 941.596 699.297 939.004 700.572 936.214 701.689 C 935.162 705.876 934.247 710.016 933.598 714.179 C 931.074 730.371 932.975 744.035 929.596 759.207 C 926.032 775.203 919.685 800.125 912.085 807.737 C 907.967 811.861 902.064 812.541 897.552 812.107 L 897.552 840.515 L 388.365 840.515 C 388.169 840.597 387.966 840.678 387.757 840.757 C 378.202 844.388 342.079 844.635 331.722 841.758 C 326.111 840.199 323.984 837.596 322.216 834.253 C 320.396 830.81 320.59 824.506 321.216 821.245 C 321.683 818.813 323.004 817.011 324.218 815.742 C 325.235 814.678 326.091 814.495 327.72 813.741 C 330.057 812.658 335.983 811.3 337.96 809.942 C 338.04 809.304 338.13 808.729 338.226 808.237 C 338.444 807.115 338.789 806.195 339.204 805.413 C 338.779 799.824 335.873 787.264 337.226 781.221 C 338.257 776.611 341.78 774.641 344.053 770.776 C 340.655 771.22 337.129 771.226 334.724 770.714 C 331.101 769.943 328.615 768.205 326.219 765.211 C 323.177 761.41 320.974 756.724 319.215 748.2 C 316.91 737.04 316.774 712.837 316.039 694.666 C 315.747 694.203 315.471 693.704 315.212 693.166 C 311.62 685.692 310.28 660.87 311.117 652.893 C 309.523 648.756 306.317 648.089 305.206 644.136 C 304.071 640.098 304.495 632.778 304.895 627.361 C 304.642 626.967 304.411 626.555 304.205 626.125 C 301.806 621.115 302.247 609.491 303.205 604.112 C 303.251 603.854 303.302 603.601 303.357 603.351 C 302.43 601.99 301.665 600.572 301.203 599.109 C 300.135 595.727 300.416 590.975 301.043 587.838 C 300.315 587.017 299.687 586.103 299.202 585.1 C 296.918 580.37 297.901 570.876 298.182 564.553 C 297.416 563.755 296.68 563.058 296.2 561.085 C 294.561 554.346 294.007 533.279 295.2 527.064 C 295.246 526.826 295.295 526.6 295.346 526.385 C 295.297 526.279 295.248 526.172 295.2 526.064 C 292.433 519.821 291.418 502.726 293.199 496.045 C 293.956 493.204 295.548 492.322 297.238 490.845 C 298.491 484.324 303.361 472.337 307.066 464.975 C 309.332 456.635 311.703 448.359 314.211 444.013 C 317.514 438.292 319.508 437.687 324.718 433.507 C 332.708 427.096 349.425 414.657 360.74 409.492 C 369.133 405.661 378.469 403.874 385.237 402.853 L 385.237 400.245 Z M 844.389 400.245 C 844.561 399.845 844.628 399.431 844.537 398.986 C 844.088 396.779 839.666 394.884 836.735 392.499 C 836.711 393.033 836.646 393.532 836.532 393.983 C 835.877 396.572 834.665 398.375 832.306 400.245 L 844.389 400.245 Z M 772.917 271.146 C 772.469 270.26 772.028 269.304 771.599 268.291 C 771.971 269.412 772.361 270.527 772.763 271.635 C 772.811 271.466 772.862 271.303 772.917 271.146 Z" style="stroke: rgb(0, 0, 0); paint-order: fill; fill: rgb(255, 255, 255);"/>
  <g id="Layer_2" data-name="Layer 2">
    <g id="outline">
      <g id="developer">
        <path id="chair" class="cls-1" d="M317.73,731.65l-24.4-194.59c-9.61-76.61,45-138.72,122.06-138.72H544.24"/>
        <g id="body">
          <path id="hoodie" class="cls-1" d="M625,394.92l16-22.53-4.21-30.25c-1.13-2.14-2.29-4.37-3.48-6.67-87.37,13-98,49.61-78.38,88.82C410,452.59,346.9,675.05,384.6,780.6c10.74,30,19.36,60,51.27,60.34"/>
          <g id="tshirt">
            <path class="cls-2" d="M670.57,475.79c0-.19,0-.38,0-.57,4.74.46,9.34.49,13.78-3.35,11-9.53,14.9-12.39,14.9-12.39s1,1.2,2.77,3.23c2.17-4,4.43-8.15,6.74-12.35C661.27,413.58,625,394.92,625,394.92L622.32,393l-17.44,21.27S633.26,433.83,670.57,475.79Z"/>
            <path class="cls-2" d="M900.13,821.06s-76-204.39-66.33-267.73c5.27-34.55-3-73.73-14.42-104l-21.77,1.41-26.06,61.62c1.7.42,3.4.77,5.1,1,0,0-1,6.47-3.46,21.34-1.65,9.91,1.18,11,3.42,17.88,2.89,4.63,5.11,9.83,2.67,17.87-.8,2.63-2.7,27.4-7,61,8,17,15.64,34.94,22.8,54,46.08,122.92,41.29,136.33,41.29,136.33Z"/>
          </g>
          <path id="hoodie-2" data-name="hoodie" class="cls-1" d="M1157.5,839.33c-5.47-36-44.48-229.23-267.66-398.72-5-30.28-17.65-77.94-82.66-100.22"/>
          <path id="string" class="cls-3" d="M851.9,542.57s-2.4,65.28,11.89,112.21"/>
          <path id="stripe" class="cls-4" d="M886.88,439.86c.71,4.26,1.26,8.18,1.79,11.62,6.14,39.82-7,66.26-15.69,84.59,23.33-16.5,39.06-47.88,47-71.81C910.39,456.58,897.3,447.62,886.88,439.86Z"/>
          <path id="stripe_II" data-name="stripe II" class="cls-4" d="M557.24,422.52c-16.32,3.33-43.14,11.46-62.47,24.83,13.5,7.36,80.36,47.4,135,71.42.43-.25,3.43-5.25,4.93-7.2C604.46,487.59,572.65,453.41,557.24,422.52Z"/>
        </g>
        <g id="head">
          <path id="ear" class="cls-1" d="M601.25,263.25S564.14,273.31,579.16,305c10.44,22,30.26,14.18,42.08,7.51"/>
          <path id="face" class="cls-1" d="M611.15,269.27l11.66-3.91c7.69,4.65,33.09,36.21,41.28,51.85,0,0,37.29-24.19,95.5-39.66,0,0,31.69-7.24,45.47-6.66-4-32-12.18-72.88-26.58-109.43-21.42-54.33-87.7-33.25-97.32-30-103.37,35.17-70.11,137.58-70.11,137.58Z"/>
          <path id="beard" class="cls-1" d="M727.49,403.37c-12.44,0-24.27-2.07-33.58-5.75-30.2-11.93-36.62-19.62-47.46-37.76s-44.81-87.39-44.81-87.39l21.17-7.11c7.69,4.65,33.09,36.21,41.28,51.85,0,0,37.29-24.19,95.5-39.66,0,0,32-7.32,45.69-6.66,0,0,6.54,32.54,2.62,64.44"/>
          <path id="hair" class="cls-4" d="M604.24,281.52s-19.12-22.17-32.93-48.66c-13-24.9-7.61-55.75,13.94-73.75C603.29,144,620.46,148,620.46,148s-31.06-31.64-6.57-72.57a61.32,61.32,0,0,1,39.38-28.38c40.2-8.81,61,21.85,61,21.85s23.1-89.19,122.31-64.65c10,2.48,23.23,13.06,30.2,20.66C909,71,829.46,158,781.07,175.42c-53.13,19.12-87.3,18.07-108.18,9.13C687.9,189.12,688.45,273.79,604.24,281.52Z"/>
          <polyline id="nose" class="cls-3" points="757.57 253.95 776.31 303.81 757.05 303.71"/>
          <circle id="mouth" class="cls-4" cx="747.28" cy="337.55" r="9.47"/>
          <ellipse id="eye_II" data-name="eye II" class="cls-4" cx="777.71" cy="249.86" rx="5.42" ry="8.39" transform="translate(-37.39 196.21) rotate(-14.04)"/>
          <ellipse id="eye" class="cls-4" cx="726.86" cy="261.64" rx="5.42" ry="8.39" transform="translate(-41.77 184.22) rotate(-14.04)"/>
          <path id="brow_II" data-name="brow II" class="cls-3" d="M693.66,229.94a24.85,24.85,0,0,1,20.58-14.69"/>
          <path id="brow" class="cls-3" d="M762.32,202.32s13.64-7.43,20.27,3.58"/>
        </g>
        <path id="laptop" class="cls-4" d="M1354,562.9H965.2a11,11,0,0,0-10.7,8.47L900.44,800.19H759.51s-7.81,40.34,37.73,40.34h496.39a11,11,0,0,0,10.7-8.47l60.39-255.63A11,11,0,0,0,1354,562.9Z"/>
        <g id="code_lines" data-name="code lines">
          <rect class="cls-2" x="1191.7" y="206.24" width="13.06" height="17.89" rx="5"/>
          <rect class="cls-4" x="1096.88" y="206.24" width="89.8" height="17.89" rx="5"/>
          <rect class="cls-4" x="1096.88" y="289.34" width="97.93" height="17.89" rx="5"/>
          <rect class="cls-2" x="1121.64" y="261.67" width="151.89" height="17.89" rx="5"/>
          <rect class="cls-2" x="1282.03" y="261.67" width="82.04" height="17.89" rx="5"/>
          <rect class="cls-4" x="1378.78" y="234.01" width="13.06" height="17.89" rx="5"/>
          <rect class="cls-4" x="1096.88" y="233.96" width="157.06" height="17.89" rx="5"/>
          <rect class="cls-4" x="1210.52" y="206.24" width="89.8" height="17.89" rx="5"/>
          <rect class="cls-2" x="1260.97" y="233.9" width="110.79" height="18" rx="5"/>
        </g>
        <g id="code_lines-2" data-name="code lines">
          <rect class="cls-4" x="1096.88" y="385.61" width="89.8" height="17.89" rx="5"/>
          <rect class="cls-4" x="1096.88" y="468.71" width="97.93" height="17.89" rx="5"/>
          <rect class="cls-2" x="1121.64" y="441.05" width="151.89" height="17.89" rx="5"/>
          <rect class="cls-2" x="1282.03" y="441.05" width="82.04" height="17.89" rx="5"/>
          <rect class="cls-4" x="1378.78" y="413.38" width="13.06" height="17.89" rx="5"/>
          <rect class="cls-4" x="1401.62" y="385.61" width="13.06" height="17.89" rx="5"/>
          <rect class="cls-4" x="1096.88" y="413.33" width="157.06" height="17.89" rx="5"/>
          <rect class="cls-2" x="1191.7" y="385.61" width="108.62" height="17.89" rx="5"/>
          <rect class="cls-2" x="1307.24" y="385.61" width="89.8" height="17.89" rx="5"/>
          <rect class="cls-2" x="1191.7" y="358.8" width="13.06" height="17.89" rx="5"/>
          <rect class="cls-4" x="1096.88" y="358.8" width="89.8" height="17.89" rx="5"/>
          <rect class="cls-4" x="1210.52" y="358.8" width="89.8" height="17.89" rx="5"/>
          <rect class="cls-2" x="1260.97" y="413.28" width="110.79" height="18" rx="5"/>
        </g>
        <g id="mug">
          <path id="handle" class="cls-1" d="M1484.34,735.41a26.47,26.47,0,0,1,6.76-1.41,26.07,26.07,0,1,1-2.15,51.76"/>
          <line id="spoon" class="cls-1" x1="1421.52" y1="738.81" x2="1384.25" y2="693.31"/>
          <path id="mug-2" data-name="mug" class="cls-4" d="M1378.78,724.71v85.81a30,30,0,0,0,30,30h50.6a30,30,0,0,0,30-30V724.71Zm44.74,62.83a2,2,0,0,1,1,1.76,2,2,0,0,1-2,2,2,2,0,0,1-1-.25l-20-12a2,2,0,0,1,0-3.62l20-12a2,2,0,0,1,1-.25,2,2,0,0,1,2,2,2,2,0,0,1-1,1.76l-17.21,10.32Zm25-29.58-16.1,40.25a2.09,2.09,0,0,1-.4.55,2,2,0,0,1-1.43.6,2,2,0,0,1-2-2,2,2,0,0,1,.18-.85l16.1-40.25a2.08,2.08,0,0,1,.43-.58,1.89,1.89,0,0,1,1.41-.58,2,2,0,0,1,2,2A2.11,2.11,0,0,1,1448.52,758ZM1475.77,779l-20,12a2,2,0,0,1-1,.25,2,2,0,0,1-2-2,2,2,0,0,1,1-1.76L1471,777.23l-17.21-10.32a2,2,0,0,1-1-1.76,2,2,0,0,1,.59-1.42,2,2,0,0,1,1.43-.59,2,2,0,0,1,1,.25l20,12a2,2,0,0,1,0,3.62Z"/>
        </g>
        <g id="tea">
          <path id="handle-2" data-name="handle" class="cls-1" d="M245.2,786a26.07,26.07,0,1,1-3.83-52,25.69,25.69,0,0,1,4.73.08"/>
          <path id="ug" class="cls-4" d="M241.81,724.71v85.81a30,30,0,0,0,30,30h50.61a30,30,0,0,0,30-30V724.71Zm44.75,62.83a2,2,0,0,1,1,1.76,2,2,0,0,1-2,2,2,2,0,0,1-1-.25l-20-12a2,2,0,0,1,0-3.62l20-12a2,2,0,0,1,1-.25,2,2,0,0,1,2,2,2,2,0,0,1-1,1.76l-17.21,10.32Zm42.18-8.5-20,12a2,2,0,0,1-1,.25,1.91,1.91,0,0,1-1.42-.59,1.93,1.93,0,0,1-.59-1.42,2,2,0,0,1,1-1.76l17.21-10.31-17.21-10.32a2,2,0,0,1-1-1.76,2,2,0,0,1,2-2,2,2,0,0,1,1,.25l20,12a2,2,0,0,1,0,3.62Z"/>
        </g>
        <g id="soda">
          <line id="line" class="cls-1" x1="427.34" y1="690.13" x2="413.67" y2="665.32"/>
          <line id="line-2" data-name="line" class="cls-1" x1="396.99" y1="692.78" x2="472.76" y2="692.78"/>
          <g id="can">
            <path class="cls-4" d="M462.27,773.58a5.9,5.9,0,1,0,1.71,4.15A5.69,5.69,0,0,0,462.27,773.58Z"/>
            <path class="cls-4" d="M458.11,764.82A5.87,5.87,0,1,0,454,763.1,5.65,5.65,0,0,0,458.11,764.82Z"/>
            <path class="cls-4" d="M462.27,800.67a5.9,5.9,0,1,0-4.16,1.71A5.68,5.68,0,0,0,462.27,800.67Z"/>
            <path class="cls-4" d="M480.21,710.88l-13.29-17.29H402.83l-13.29,17.29a9.15,9.15,0,0,0-2,5.61V821.75A9.84,9.84,0,0,0,392.5,830c4.11,2.56,9.35,6.52,9.72,10.31h65.31c.36-3.79,5.6-7.75,9.71-10.31a9.84,9.84,0,0,0,4.93-8.27V716.49A9.2,9.2,0,0,0,480.21,710.88Zm-27.82,20.19,7-11.68a1.21,1.21,0,0,1,1-.65,1.23,1.23,0,0,1,1.06.65l7,11.68a1.15,1.15,0,0,1,.15.59,1.11,1.11,0,0,1-.34.82,1.14,1.14,0,0,1-.83.35,1.19,1.19,0,0,1-1-.6l-6-10-6,10a1.2,1.2,0,0,1-1,.6,1.14,1.14,0,0,1-.83-.35,1.12,1.12,0,0,1-.35-.82A1.15,1.15,0,0,1,452.39,731.07Zm.46,4.4a1.12,1.12,0,0,1,.69-.22,1.14,1.14,0,0,1,.83.35,1.12,1.12,0,0,1,.34.83,1,1,0,0,1-.31.77l-.44.43a5.67,5.67,0,0,0-1.72,4.15,5.12,5.12,0,0,0,1.53,3.89,1.55,1.55,0,0,0,1,.35,1,1,0,0,0,.94-.72l2.39-7.22a5.14,5.14,0,0,1,1.05-1.86,3.32,3.32,0,0,1,2.48-1,3.5,3.5,0,0,1,2.54,1.08,7.41,7.41,0,0,1,2.15,5.52,8.14,8.14,0,0,1-2.95,6.31.94.94,0,0,1-.69.22,1.16,1.16,0,0,1-1.17-1.17,1,1,0,0,1,.31-.78l.44-.43a5.66,5.66,0,0,0,1.71-4.15,5.11,5.11,0,0,0-1.52-3.89,1.57,1.57,0,0,0-1-.35,1,1,0,0,0-.94.72l-2.4,7.22a5.15,5.15,0,0,1-1,1.86,3.32,3.32,0,0,1-2.48,1,3.5,3.5,0,0,1-2.54-1.08,7.41,7.41,0,0,1-2.15-5.52A8.13,8.13,0,0,1,452.85,735.47Zm-.55,17.67a8.23,8.23,0,1,1-2.4,5.81A7.91,7.91,0,0,1,452.3,753.14Zm-2.06,51.25a1.18,1.18,0,0,1,.83-2h1.29a8.23,8.23,0,1,1,5.75,2.35h-7A1.13,1.13,0,0,1,450.24,804.39Zm18.29,4.45-7,11.68a1.23,1.23,0,0,1-1.06.65,1.21,1.21,0,0,1-1-.65l-7-11.68a1.15,1.15,0,0,1-.15-.59,1.12,1.12,0,0,1,.35-.82,1.1,1.1,0,0,1,.83-.35,1.2,1.2,0,0,1,1,.6l6,10,6-10a1.19,1.19,0,0,1,1-.6,1.18,1.18,0,0,1,1.17,1.17A1.15,1.15,0,0,1,468.53,808.84Zm4.53-23.23a1.13,1.13,0,0,1-.83.34H458.11a8.21,8.21,0,1,1,5.82-2.41l-.06.06h8.36a1.14,1.14,0,0,1,.83.35,1.13,1.13,0,0,1,.35.83A1.16,1.16,0,0,1,473.06,785.61Z"/>
          </g>
        </g>
        <g id="hand">
          <path id="thumb" class="cls-1" d="M728.2,413.19c.41-12.93.21-33.28-4.38-42.17-7.29-14.11-.49-29.17,14.42-13.76,8.5,8.78,12.67,20.43,14.69,28.82"/>
          <circle class="cls-1" cx="854.1" cy="366.37" r="26.07"/>
          <path id="sleeve" class="cls-1" d="M685.24,843.52c76.2-5.69,91.36-264.23,94-273.06,5.29-17.44-11.32-21.53-9.14-35.34s.49-20,.49-20c-35.77-5.82-70.51-50.8-70.51-50.8s-3.6,2.63-13.85,11.39-21.69-4.7-33.39,8.72C645.12,493.38,561,634.6,561,634.6"/>
          <path id="welt" class="cls-4" d="M773.19,534.71c2.48-14.87,3.46-21.34,3.46-21.34-38.09-5.86-77.37-53.89-77.37-53.89s-3.88,2.86-14.9,12.39c-4.44,3.84-9,3.81-13.78,3.35-3.37,41.71,71.45,78.84,106.89,80.59C775.23,545.79,771.32,546,773.19,534.71Z"/>
          <path id="line-3" data-name="line" class="cls-1" d="M511.48,610.91s45.1-38.92,71.28-14.4"/>
          <path id="hand-2" data-name="hand" class="cls-1" d="M684.44,495.72,760,539.65l37.82-89.42c36.49.06,36.33-19.76,28.69-20.44s-44.33,4.47-44.33,4.47,1.19-2.67,31-8.33,24.21-22.27,17.8-22.72-53.78,11.42-53.78,11.42l40.7-14.53c14.49-4.6,15-18.64,7.43-20.62-5-1.31-31.66,6.75-52.76,14.13,0,0,25.36-13,37.39-20.86s3.62-18.11-3.41-17.47-55.87,33.3-65.17,41.39S684.44,495.72,684.44,495.72Z"/>
        </g>
        <g id="coffe">
          <path id="handle-3" data-name="handle" class="cls-1" d="M635.24,734.65a27.18,27.18,0,0,1,4.18-.65,26.07,26.07,0,1,1-5.77,50.92"/>
          <path id="mug-3" data-name="mug" class="cls-4" d="M527.1,724.71v85.81a30,30,0,0,0,30,30h50.6a30,30,0,0,0,30-30V724.71Zm44.74,62.83a2,2,0,0,1,1,1.76,2,2,0,0,1-2,2,2,2,0,0,1-1-.25l-20-12a2,2,0,0,1,0-3.62l20-12a2,2,0,0,1,1-.25,2,2,0,0,1,1.42.59,1.91,1.91,0,0,1,.59,1.42,2,2,0,0,1-1,1.76l-17.21,10.32Zm25-29.58-16.1,40.25a2.13,2.13,0,0,1-.41.55,2,2,0,0,1-1.43.6,2,2,0,0,1-2-2,2.19,2.19,0,0,1,.17-.85l16.1-40.25a2.29,2.29,0,0,1,.43-.58,1.92,1.92,0,0,1,1.41-.58,2,2,0,0,1,2,2A2.27,2.27,0,0,1,596.85,758ZM624.09,779l-20,12a2,2,0,0,1-1,.25,2,2,0,0,1-2-2,2,2,0,0,1,1-1.76l17.2-10.31-17.2-10.32a2,2,0,0,1-1-1.76,1.91,1.91,0,0,1,.59-1.42,2,2,0,0,1,1.42-.59,2,2,0,0,1,1,.25l20,12a2,2,0,0,1,0,3.62Z"/>
        </g>
        <line id="line-4" data-name="line" class="cls-1" x1="3" y1="843.03" x2="1639.48" y2="843.03"/>
        <path class="cls-4" d="M853.73,417l-5.54-85.63-110.37,7.15,3.75,57.94c9.81-8.39,58-40.57,64.95-41.2s15.44,9.62,3.41,17.47-37.39,20.86-37.39,20.86c21.1-7.38,47.79-15.44,52.76-14.13,7.58,2,7.06,16-7.43,20.62l-40.7,14.53s47.37-11.87,53.78-11.42,12,17.06-17.8,22.72-31,8.33-31,8.33,36.7-5.16,44.33-4.47,7.8,20.5-28.69,20.44l-.21.49,28.12-1.82A30,30,0,0,0,853.73,417Z"/>
      </g>
    </g>
  </g>
</svg>